<?xml version="1.0" encoding="utf-8"?>
<!-- Generator: Adobe Illustrator 23.1.0, SVG Export Plug-In . SVG Version: 6.00 Build 0)  -->
<svg version="1.2" baseProfile="tiny" id="_x3C_Layer_x3E_"
	 xmlns="http://www.w3.org/2000/svg" xmlns:xlink="http://www.w3.org/1999/xlink" x="0px" y="0px" viewBox="0 0 2614.5 1158.3"
	 xml:space="preserve">
<g>
	<g>
		<g>
			<path fill="#DDE8FD" d="M166.9,1096.6c0,0-143.2-354,66.3-565.4c270.2-272.6,619.3-44.7,750.3-51.4
				c131-6.6,138.4-268.2,529.8-299.5c302.6-24.2,799.6-26.1,693.6,401.3c-80.6,324.9,367.9,156.6,280.6,515.6L166.9,1096.6z"/>
			<g>
				<g>
					<path fill="#3A49CD" d="M605.8,880.7c0,0-34.1-39.7-2.1-65c0,0,23.3-14.1,42.4-13c0,0-27,45.2-18.2,49.7
						c8.7,4.5,26.4-52.6,26.4-52.6s53.1-5.2,70.2,3.1c0,0-45.4,37.2-35.9,39.4c9.6,2.2,58.6-34.3,58.6-34.3s49.5,8.4,46.8,38.6
						c-2.6,30.2-19.7,39.5-27.2,38.7c-7.5-0.8-51.3-17.5-52.3-11.4c-1,6.1,25.4,26.2,43.9,27.1c0,0-34.9,38.4-58,27.4
						c-23.2-11.1-25.1-28.7-39.6-35.3c-14.4-6.6-26.8-6.6-20.8,0.1c6,6.7,32.1,13.3,40.4,27.9c8.3,14.6,15.7,24.5-8.3,20.9
						c-24-3.6-62.9-21.1-64.6-41.2C605.8,880.7,605.8,880.7,605.8,880.7z"/>
					<g>
						<path fill="#3A49CD" d="M769.8,847.4c0,0-134.3-5.2-164,33.2c0,0-6.6,19.6-26.7,37.5l-3.1,8.6c0,0,23.3-24.5,31.6-26
							C607.6,900.8,594.5,853.2,769.8,847.4z"/>
						<path fill="#3A49CD" d="M579.1,918.2c0,0-28.8,21.3-30.8,59.4l5.2,0.5c0,0,9.2-39.4,25.8-54.8
							C596,907.9,579.1,918.2,579.1,918.2z"/>
					</g>
				</g>
				<g>
					<path fill="#93B3F4" d="M486.7,830.7c0,0,54.2-30.3,28.9-71.5c0,0-20.2-25.3-41.9-31.8c0,0,11.6,61.4,0,62.9
						c-11.6,1.4-7.9-69.4-7.9-69.4s-57.1-27.5-79.5-25.3c0,0,35.4,60,23.8,58.5c-11.6-1.4-51.3-62.1-51.3-62.1s-58.5-10.8-67.9,23.8
						c-9.4,34.7,5.8,52,14.4,54.2c8.7,2.2,64.3,1.4,62.9,8.7c-1.4,7.2-39,18.8-60,12.3c0,0,23.1,57.1,53.5,54.2
						c30.3-2.9,39.7-21.7,58.5-23.1c18.8-1.4,32.5,3.6,23.1,8.7c-9.4,5.1-41.2,1.7-56.4,14.6c-15.2,12.9-27.5,20.8,0.7,26.6
						c28.2,5.8,78.8,2.2,88.9-19.5C486.7,830.7,486.7,830.7,486.7,830.7z"/>
					<g>
						<path fill="#93B3F4" d="M317.7,726.6c0,0,151.7,49.1,169.1,104c0,0-0.7,24.6,14.4,52.7v10.8c0,0-15.9-36.8-24.6-41.9
							C476.6,852.4,510.6,804.7,317.7,726.6z"/>
						<path fill="#93B3F4" d="M501.2,883.4c0,0,23.4,35.5,10.1,78.8l-6-1.6c0,0,5.8-47.6-6.4-71.6
							C486.6,865,501.2,883.4,501.2,883.4z"/>
					</g>
				</g>
				<g>
					<path fill="#93B3F4" d="M572.9,788.8c0,0-71.4-40-38.1-94.3c0,0,26.7-33.3,55.2-41.9c0,0-15.2,81,0,82.9
						c15.2,1.9,10.5-91.4,10.5-91.4s75.2-36.2,104.8-33.3c0,0-46.7,79-31.4,77.1c15.2-1.9,67.6-81.9,67.6-81.9s77.1-14.3,89.5,31.4
						c12.4,45.7-7.6,68.6-19,71.4c-11.4,2.9-84.8,1.9-82.9,11.4c1.9,9.5,51.4,24.8,79,16.2c0,0-30.5,75.2-70.5,71.4
						c-40-3.8-52.4-28.6-77.1-30.5c-24.8-1.9-42.9,4.8-30.5,11.4c12.4,6.7,54.3,2.2,74.3,19.2c20,17,36.2,27.5-1,35.1
						c-37.1,7.6-103.8,2.9-117.1-25.7C572.9,788.8,572.9,788.8,572.9,788.8z"/>
					<g>
						<path fill="#3A49CD" d="M795.8,651.7c0,0-200,64.8-222.9,137.1c0,0,1,32.4-19,69.5v14.3c0,0,21-48.6,32.4-55.2
							C586.3,817.4,541.5,754.6,795.8,651.7z"/>
						<path fill="#3A49CD" d="M553.9,858.4c0,0-30.8,46.8-13.3,103.9l7.9-2.1c0,0-7.7-62.8,8.4-94.4
							C573.1,834.1,553.9,858.4,553.9,858.4z"/>
					</g>
				</g>
				<path fill="#FA7269" d="M570.5,1085.9c77.3,0,139.9-62.6,139.9-139.9H430.6C430.6,1023.2,493.3,1085.9,570.5,1085.9z"/>
				<path fill="#FC9290" d="M605,1084.8c-5.7,0.7-11.5,1.1-17.4,1.1c-77.3,0-139.9-62.6-139.9-139.9h34.8
					C482.4,1017.3,535.9,1076.2,605,1084.8z"/>
				<path fill="#FA7269" d="M712.4,1093H428.7l0,0c0-9.5,7.7-17.3,17.3-17.3h249.2C704.7,1075.7,712.4,1083.4,712.4,1093L712.4,1093
					z"/>
				<rect x="426" y="945.9" fill="#E75755" width="287.6" height="4.3"/>
			</g>
			<g>
				<path fill="#060632" d="M1954.6,1045.6c0,0,2.9,46.8,11.9,47.4c1.2,0.1,45.9,0.1,45.9,0.1l57-0.3c0,0-0.4-13.7-17-16.7
					c-16.7-2.9-44.6-14.6-54.7-36.7C1987.2,1016.3,1954.6,1045.6,1954.6,1045.6z"/>
				<path fill="#FC9290" d="M1924.2,492.5c0,0,26.9,15.3,34.5,15.3c7.5,0,37.1-5.7,45.4-1.5c8.2,4.2,23.2,21.2,26,26.7
					c5,10-20.3,5.6-32.2-2.9c-1.7-1.2-3.9-1.7-6-1.2c-6.2,1.4-19.1,3.7-25.3,1.4c-8.4-3.1-52.4-6.5-52.4-6.5L1924.2,492.5z"/>
				<path fill="#ED6966" d="M1719.3,283.9c0,0,27.9,198.4,74.1,216.2c22.8,8.8,123.6,28.6,153.4,30.6c0,0,7.3-5.9,5.5-30
					c0,0-105.6-38.8-120.6-59.9c-22.3-31.4,13.9-128.2-14.2-157.7C1789.6,253.7,1742.4,241,1719.3,283.9z"/>
				<path fill="#030231" d="M1728.7,702c8.1,13.8,17.6,26.8,27.3,39c30,37.9,62.7,69.1,68.4,98.6c1.1,5.9,2.9,12.2,5.3,18.9
					c2.4,6.8,5.3,13.9,8.7,21.2c12.7,27.7,31.8,58.7,50.8,86.8c32.9,48.7,63.8,89.3,63.8,89.3l56.7-2.4c-2.3-5.7-27-72.9-60.1-155.1
					c-13.4-33.4-27.7-68.8-41.5-103.1c-1.8-4.6-3.7-9.1-5.5-13.6c-4.2-10.5-8.4-20.8-12.4-30.8c-31-77.2-55.8-138.6-55.8-138.6
					s-124.1-47-137-16.5C1686.7,620.9,1695.4,645.5,1728.7,702z"/>
				<path fill="#060632" d="M1823.4,912c0,0-39.4,25.3-35.6,33.6c0.5,1.1,22.3,40.1,22.3,40.1l28.1,49.6c0,0,11.8-7,6.2-23
					c-5.6-16-9-46.1,5.4-65.6C1864.8,926.1,1823.4,912,1823.4,912z"/>
				<path fill="#0B0754" d="M1842.7,956.5c0,0-24.6-21.7-29-37.7c0,0,101.5-121.6,123.5-148.9c1-1.2,0.8-2.6-0.6-4.1
					c-16.6-18.7-201.3-56.9-225.5-94.4c-8.3-12.9-13-25.2-15.6-36c-5.5-22.9-1.1-38.7-1.1-38.7l184.5-5.3c0,0,153.6,95.6,171,160.8
					C2067.3,817.4,1842.7,956.5,1842.7,956.5z"/>
				<path fill="#010117" d="M1936.7,765.8c-16.6-18.7-201.3-56.9-225.5-94.4c-8.3-12.9-13-25.2-15.6-36v-23.3l78.4-12.3
					c0,0,22.2,68.4,88.1,94.1C1923.8,717.9,1935.4,760.5,1936.7,765.8z"/>
				<path fill="#FC9290" d="M1828.4,271.4c-37.3,9.6-99.2-24.9-99.2-24.9s24-16.1,32.9-51.6c0.5-1.8,0.9-3.6,1.2-5.5
					c3.9-0.8,11.3-2.4,19.2-4.1l28.5,25.5c0,0-0.7,10.6-4.2,28.8c-0.6,3.2-1.3,6.6-2.1,10.2C1820,259.4,1828.4,271.4,1828.4,271.4z"
					/>
				<path fill="#FA7269" d="M1689.7,426.1c5.3,71.9-1.7,181.2,4.4,200.2c5.2,16.3,64.9,6.6,88.7,1.2c8.8-2,19.5-4.9,30.5-8.3
					c30.7-9.5,64.2-23.1,67.8-33.2c0.1-0.4,0.3-0.8,0.3-1.2c0.3-1.5,0.3-2.8-0.1-4.2c-1.2-5.1-5.8-10.7-6.4-23.4
					c-0.6-14.2-0.5-31-1.1-49c0-2-0.1-4.2-0.3-6.3l0-0.7c0-0.4,0-0.8,0-1.2c-0.5-20.1-1.6-41.2-2.8-62.1
					c-0.8-13.1-1.7-26.2-2.7-38.6c-2.7-32.2-6.3-60.8-11.1-79c-7.8-29.5-25-48.8-40.7-62.9l-11.3-9.7c-12.7,2.8-27.6,0.9-41.2-5.5
					c-14.7-7-19.7-11.9-22.3-10.1C1707.8,258.2,1683.4,338.2,1689.7,426.1z"/>
				<path fill="#ED6966" d="M1813.3,619.1c30.7-9.5,64.2-23.1,67.8-33.2c0.1-0.4,0.3-0.8,0.3-1.2c0-1.4,0-2.8-0.1-4.2
					c-1.2-5.1-5.8-10.7-6.4-23.4c-0.6-14.2-0.5-31-1.1-49c0-2-0.1-4.2-0.3-6.3l0-0.7c0-0.4,0-0.8,0-1.2l-124.3-158.3
					C1749.4,341.7,1665.8,515.6,1813.3,619.1z"/>
				<path fill="#EA8888" d="M1811.1,210.9c0,0-0.7,10.6-4.2,28.8c-27.8-9-40.5-34.1-44.7-44.8c0.5-1.8,0.9-3.6,1.2-5.5
					c3.9-0.8,11.3-2.4,19.2-4.1L1811.1,210.9z"/>
				<path fill="#FC9290" d="M1814.8,226.9c0,0-60.7-10.1-53.8-47.8c6.9-37.7,3.7-64.4,42.7-59.5c39,4.9,43.9,20.6,44.7,33.8
					C1849.2,166.5,1830.8,228.6,1814.8,226.9z"/>
				<g>
					
						<rect x="2076.4" y="406.6" transform="matrix(-0.951 -0.309 0.309 -0.951 3908.1882 1579.6917)" fill="#3A49CD" width="5.6" height="147.4"/>
					
						<rect x="1904.6" y="540.4" transform="matrix(-0.9998 -2.134887e-02 2.134887e-02 -0.9998 3951.6987 1132.1942)" fill="#3A49CD" width="154.7" height="9.3"/>
				</g>
				<path fill="#FC9290" d="M1907.6,555.4c0,0,49.7,13.1,68.3,11.7c18.6-1.4,34.1-10.2,36.5-14.9c2.3-4.6,7.3-12.8-5.4-11.3
					c-12.7,1.5-30,4.2-30.5,1.8c-0.5-2.4,10.3-2.2,10.3-2.2s3.3-4.8-0.9-5c-4.1-0.2-16.2-3.5-20.7-1.2c-4.5,2.2-8.6,10.5-11.9,10.2
					c-3.3-0.3-41.6-17.3-41.6-17.3L1907.6,555.4z"/>
				<path fill="#FA7269" d="M1731.6,292.1c0,0,5.9,200.3,49.9,223.1c21.7,11.2,119.7,42.1,149.1,47.4c0,0,7.9-5.1,8.8-29.3
					c0,0-100.7-50.2-113.3-72.8c-18.7-33.7,27.9-125.9,3.3-158.3C1804.8,269.8,1759.3,252,1731.6,292.1z"/>
				<path fill="#120E59" d="M1762.2,194.9c0,0-0.7-12.9,7.3-20.3c0,0-2.8-13,2.4-15.1c5.1-2.1,6.2,8.8,8.6,7.1
					c2.4-1.7,12.8-9.8,17.3-21.8c4.5-12,45.6,2.5,50.4,4.7c4.8,2.2,20.2-5.8,23.2-12.2c0,0-8.6-6.8-12.4-12
					c-3.8-5.1-30.8-39.8-68.4-29.9c-37.6,9.8-42.8,27.8-40.6,43.2C1751.9,153.9,1746.8,189.7,1762.2,194.9z"/>
			</g>
			<g>
				<path fill="#0D0D38" d="M621.1,271.8l32.4-3.1c2.6-0.2,5.1,1.2,6.1,3.6l24.5,58.9c1.5,3.7-0.9,7.8-4.9,8.2l-33.7,3.2
					c-2.6,0.3-5.1-1.3-6.1-3.7l-23.1-59C614.7,276.2,617.2,272.1,621.1,271.8z"/>
				<path fill="#120E59" d="M1031.7,1049.4l-17.2,9.1c0,0-92.9-98.5-115.3-193.1c-4-16.9-5.6-33.5-3.9-49.3c0,0-1.4-4.3-3.7-11.9
					c-0.1-0.3-0.2-0.7-0.3-1c-1-3.3-2.3-7.2-3.7-11.7c-4.5-14.3-10.6-33.8-17.7-56.1c-16.2-51.2-53.2-166.8-69-214.8l113.6-41.1
					c0,0,12.9,29.4,31.4,109.4c2.9,10.4,5.7,22,8.4,34.6c3,14.2,5.9,29.8,8.2,46.7c4,28.5,6.6,60.6,6.8,95.8
					c0.1,14.3-0.3,29.2-1.1,44.5c-0.6,11.2,1,26.2,4.2,43.2C986.9,931.5,1031.7,1049.4,1031.7,1049.4z"/>
				<path fill="#0D0D38" d="M1094,1093h-91.9c0,0-3.4-14.7,2.6-24.6c5.3-8.8,3.3-13.8-0.7-21.1c4.2,1.7,9.5,3.3,15.5,2.9
					c4.6-0.3,9.4-2.3,13.7-4.8c4,4.5,20.9,23.7,26.2,27.5C1065.3,1077.1,1092.1,1075.6,1094,1093z"/>
				<path fill="#0D0D38" d="M962.7,670.2l-71.4,133c-1-3.3-2.3-7.2-3.7-11.7c-4.5-14.3-10.6-33.8-17.7-56.1
					c-16.2-51.2-53.2-166.8-69-214.8l113.6-41.1c0,0,12.9,29.4,31.4,109.4c2.9,10.4,5.7,22,8.4,34.6
					C957.6,637.8,960.4,653.4,962.7,670.2z"/>
				<path fill="#FDB3B1" d="M653.4,376.9c-0.6,0.5-27.8-27.3-42.3-42.8l14.6-8.9l79.5,49.9L653.4,376.9z"/>
				<path fill="#0D0D38" d="M799.2,1064.2c0,0-2.1,15.6,3.8,28.8h38.1c0,0,0.3-11.4-9.4-25.6C822,1053.1,799.2,1064.2,799.2,1064.2z
					"/>
				<path fill="#12123C" d="M874.2,49c0.5-2.4,7-28.5,47.4-22.9c0,0-20.2-1.1-25.1,7c0,0,15.3-8.4,25.7-3
					c10.4,5.4,13.5,25.7,12.4,32c-1,6.3-10.7,25.6-17.9,26.1c-2.7,0.2-5.8-0.5-8.4-1.5c1.3,3.2,2.6,6.7,3.7,10.6
					c10.3,35.7-11.8,65-24.8,59.1c-8.3-3.8-13.4,10.6-13.4,10.6l-72.7-83.2C801.2,83.8,843.5,25,874.2,49z"/>
				<path fill="#FDB3B1" d="M799.9,272.1c9.5,6.6,21.4,12,36.3,15.4c55.9,12.9,77.4-34.4,85.4-66.8c-7.6-4.4-14.8-5.3-18.9-5.8
					c-4-0.5-8.3-0.8-11.8-1c-6.3-4.8-15.6-24.5-17.7-55.1l-2.6,0.7l-44.1,12.1c0,0,2,14,3,27.3c0.8,10.4,0.9,20.3-1.1,22.7
					c-3.4,0.7-5.5,1.2-5.5,1.2s0,0,0,0C822.2,223.8,809.4,244.8,799.9,272.1z"/>
				<path fill="#FC9492" d="M826.4,171.6c0,0,2,14,3,27.3c25-2.5,36.6-26.3,41.1-39.3L826.4,171.6z"/>
				<path fill="#FDB3B1" d="M818.9,184.8c0,0,59.3-3.3,56.7-40.2c-2.6-36.9,3.3-62.1-34.7-61.6c-38,0.5-44.3,15.1-46.4,27.6
					C792.4,123.2,803.4,184.7,818.9,184.8z"/>
				<path fill="#12123C" d="M794.8,90c8.4-11.8,15.4-9.8,19.6-6.8c31.1-20.1,53.8,4.7,53.8,4.7c5.9,26.2,26,40,26,40
					s-10.3,7.4-35.7,2.8c-7.7-1.4-14.9-6.3-21.1-12.5c11.3,16.2,25.9,27.3,25.9,27.3c-30.7-11.6-45.6-52.1-47.1-56.4
					c-3.4,3.5-10,11.1-11.7,18.1c-2.3,9.6-2.2,29-7.9,28.8C796.6,136.2,782.2,107.6,794.8,90z"/>
				<path fill="#FDB3B1" d="M809.3,219.8c0,0,96.6-23.4,138.6,11.2l-21,292.7L738,478.1c0,0,5.3-18.5,41.5-67.8
					C815.8,361.1,800,288.8,809.3,219.8z"/>
				<path fill="#120E59" d="M865.6,491.1c0,0-0.1,1-0.3,2.9c-0.1,0.8-0.2,1.8-0.3,2.9c-0.8,7.6-2.4,22.1-4.3,41.1
					c-5.2,49.6-13.3,129.4-18.9,192.3c-4.3,49.2-7.1,88.1-5.6,94.4c4.5,18.8,0,243.7,0,243.7c-16.1,7.7-40.4,0-40.4,0
					S753.1,865.7,759,837.6c6-28.2-4-52.2-4-52.2c-33.2-154.6-29.6-240.3-23-281.3c1.9-11.9,4.1-20.1,5.7-25
					c1.3-4.2,2.3-6.2,2.3-6.2C813.2,453.1,865.6,491.1,865.6,491.1z"/>
				<path fill="#0D0D38" d="M926.9,523.7c-22.5,9.5-45,13.6-66.2,14.3c-19.4,0.7-37.9-1.6-54.5-5.2c-36.2-7.9-63.8-22.5-74.1-28.8
					c1.9-11.9,4.1-20.1,5.7-25c22.3-15.9,77.4-0.7,122.5,16.2c1.6,0.6,3.2,1.2,4.8,1.8C899.5,510.1,926.9,523.7,926.9,523.7z"/>
				<path fill="#FA7269" d="M960.9,314.5c-4.7,35.2-23.3,78.3-30,101.5c0,0,11.1,80.5,0.5,102.6c-1.2,2.5-2.7,4.3-4.5,5.1
					c-39.4,17.2-192.8,0.5-199.2-49c-2.4-18,58.4-81.2,62-88.9c1.5-3.2,3-13.5-4.1-34.8c-10.1,31.1-28.8,67.1-47.5,73.2
					c-20.6,6.7-102.1-54-102.1-54s-0.5-7.4,9.8-14.4c6.6-4.5,21.8-6,21.8-6l52.1,23.3c6.5-11.2,22.8-88.6,41-123.6
					c13.7-26.3,50.2-30.1,50.2-30.1s15.2,24.1,52,20.7c36.8-3.4,43.5-25.9,43.5-25.9s32.6,4.3,42.7,12.4
					C950.8,228.2,967,268.4,960.9,314.5z"/>
				<path fill="#ED6966" d="M930.9,416c0,0,11.1,80.5,0.5,102.6c-28.7-14.4-66.1-45.5-54.7-94.1c16.5-70.6,84.2-110,84.2-110
					C956.2,349.7,937.6,392.8,930.9,416z"/>
				<path fill="#FDB3B1" d="M906.4,361.9c0,0-40.8,5.9-44.1,9c-3.3,3-14.5,20.8-13.1,26.9c1.4,6.2,1.2,12.5,3.7,12.1
					c2.5-0.4,10.7-16.1,13.7-16.8c3.1-0.7,5.6-2.8,6-1.5c0.4,1.4-6.3,8-5.9,9.8c0.3,1.9,5.6-0.3,7.9-4c2.3-3.6,8.2-5.4,9.1-7.7
					c0.9-2.3,4.9-9.8,10.4-9.4C899.7,380.7,906.4,361.9,906.4,361.9z"/>
				<polygon fill="#FDB3B1" points="946.2,360.3 906.4,361.9 892.8,380.4 946.9,382.2 				"/>
				<path fill="#FA7269" d="M906.4,214.3c0,0,47.4,5.6,60.4,25.9c16.5,25.7,74.7,110.8,73.5,136.6c0,0-36.3,14.5-133.9,6.7
					c0,0-1.8-14.8,18.8-26.6c0,0,52.4-7.2,58.2-12.3l-38.9-41.3L906.4,214.3z"/>
				<path fill="#120E59" d="M614,272.4l32.4-3.1c2.6-0.2,5.1,1.2,6.1,3.6l24.5,58.9c1.5,3.7-0.9,7.8-4.9,8.2l-33.7,3.2
					c-2.6,0.3-5.1-1.3-6.1-3.7l-23.1-59C607.6,276.8,610.1,272.8,614,272.4z"/>
				<path fill="#FDB3B1" d="M611.1,334.1c0,0-8.6-14.8-7.9-18.4c0.6-3.6,9.5-20.5,14-22.2c8.1-3,19.5-4.8,16.4,3.7
					c-2.1,5.6-10.3,13.8-8.8,16.4c1.4,2.6,0.9,11.6,0.9,11.6L611.1,334.1z"/>
			</g>
			<g>
				<path fill="#DDE8FD" d="M1901.9,970.3c-11.6,74.4-87.5,121.7-165.3,121.7h-154.2l12.1-433.5c0,0,147.1-47.2,184-2.3
					c32.4,39.3,120.1,195.1,124.8,287.3C1903.7,952.8,1903.2,961.7,1901.9,970.3z"/>
				<path fill="#3662C1" d="M1492.6,704.4c0,0,208-106.2,247.4-36.8c20.9,36.8,78.5,183.7,82.7,275.9
					c4.1,89.6-73.5,148.5-153.3,148.5h-141.8L1492.6,704.4z"/>
				<path fill="#BED2FA" d="M1531.7,763.3c-1.8,9-18.6,17.4-43.6,24.8c-4.4,1.3-9.1,2.6-13.9,3.8c-85,21.7-235.7,33.8-250,27.4
					c-19.8-8.9-141.6-441.5-141.6-441.5s116.2-4.4,208.6-6.5c31.6-0.7,60.4-1.2,80.7-1.1c2.5,0,4.8,0.2,7,0.5
					c8.8,1.3,15.4,4.9,20.5,10.5c14.9,16,18.5,47.5,32.3,82.4c13.6,34.5,30.3,77.5,46.1,120.2c4.1,11,8.1,22,12,32.8
					c1.1,3.1,2.2,6.1,3.3,9.1C1516.5,691.3,1534.5,748.7,1531.7,763.3z"/>
				<path fill="#BED2FA" d="M1901.9,970.3c-11.6,74.4-87.5,121.7-165.3,121.7h-75.6C1711.3,1057.8,1756.9,952.5,1901.9,970.3z"/>
				<path fill="#93B3F4" d="M1493.1,625.8c-3.9-0.6-8.9-1.5-14.5-2.4c-1.2-1.2-2.1-2.4-2.7-3.6c-2.3-5-0.7-19.4,1.9-35.9
					c-15.8-42.7-32.5-85.7-46.1-120.2c-13.8-34.9-17.4-66.4-32.3-82.4c-5.2-5.6-11.7-9.3-20.5-10.5c-12.3,0.2-25.2,0.4-38.6,0.6
					c-4.7,9.4-12.9,18.3-27.1,25.7c-63.1,33.2-16.3,101.6-16.3,101.6c0.5,0.3,25,49.2,25,49.2c-0.1-3.4,3.2-9.5,8.9-17.3
					c4.2,29.2,11,59,19.1,80.4c-4.5,22.6-15.9,56.1-22,81.8c-4.9,20.5-6.4,35.9,1.7,36.7c0.9,0.1,1.9,0.1,3,0
					c-0.5,7.1,0.9,14.7,4.9,22.5c15.8,30.6,91.8,36.1,150.6,36.2c25-7.4,41.8-15.8,43.6-24.8
					C1534.5,748.7,1516.5,691.3,1493.1,625.8z"/>
				<path fill="#5076C9" d="M1780.5,1025.4c-29.8,41.3-75.4,67.9-126.3,67l-218.6,0.1l-104.7,0.1l117.8-388.1
					c0,0,298.3-29.7,335,9.9c17.1,18.4,26.7,101.6,32,185.4C1818.8,947.1,1805,991.3,1780.5,1025.4z"/>
				<path fill="#3662C1" d="M1780.5,1025.4c-29.8,41.3-75.4,67.9-126.3,67l-218.6,0.1c25.7-21.6,106.6-82.9,193.2-80
					C1694.5,1014.7,1746.7,1013.8,1780.5,1025.4z"/>
				<g>
					<path fill="#FCA09E" d="M1511.7,432.8c0,0,18.2,26.9,28.5,83.4c9.1,49.5,17,67.8,30.1,77.9c13.1,10.1,86.1,40.1,86.1,40.1
						L1651,647c0,0-107-14.6-119-32.5c-12-17.9-57.8-123.5-54.3-147.9C1481.3,442.4,1511.7,432.8,1511.7,432.8z"/>
					<g>
						<path fill="#FDB3B1" d="M1773.7,1023.1c-1,10.4,13.6,13,30.4,13.8c16.8,0.8,11.7,4.3,34.8,8.5c23.1,4.2,32.3-2.1,34-5.2
							c1.5-2.8-9.2-7.1-20.7-12c-1.4-0.6-2.9-1.2-4.3-1.9c-12.9-5.7-20.1-17.2-30.1-27.9c-9.5-10.1-18.5-42.6-18.5-42.6l-31.3-6.7
							c0,0,8.8,29.2,11.9,41.6c1.8,7.3-0.9,15.5-3.2,21.8C1775.3,1015.9,1774.1,1019.4,1773.7,1023.1z"/>
						<path fill="#B15252" d="M1804.1,1036.9c16.8,0.8,11.7,4.3,34.8,8.5c23.1,4.2,32.3-2.1,34-5.2c1.5-2.8-9.2-7.1-20.7-12
							l-0.2,0.2c0,0-16.2,5.5-34.9,0.4c-15.3-4.1-30-13.3-40.5-16.2c-1.3,3.4-2.5,6.9-2.9,10.5
							C1772.8,1033.5,1787.3,1036.1,1804.1,1036.9z"/>
					</g>
					<path fill="#060632" d="M1461.7,651.5c0,0,208.2-15.7,247.4,9.1c39.2,24.7,102.1,312.9,102.1,312.9s-3.9,3.1-12.5,4
						c-8.1,0.9-25.8-3.9-25.8-3.9s-90.4-128.9-96.7-161.4c-6.4-32.5-4.8-61.5-19.3-62.2c-14.5-0.8-195.1,22-222.5-26.2
						c-27.3-48.1-4.7-95.8-4.7-95.8L1461.7,651.5z"/>
					<g>
						<path fill="#FDB3B1" d="M1694.1,1056.5c-1,10.4,13.6,13,30.4,13.8c16.8,0.8,11.7,4.3,34.8,8.5c23.1,4.2,32.3-2.1,34-5.2
							c1.5-2.8-9.2-7.1-20.7-12c-1.4-0.6-2.9-1.2-4.3-1.9c-12.9-5.7-20.1-17.2-30.1-27.9c-9.5-10.1-18.5-42.6-18.5-42.6l-31.3-6.7
							c0,0,8.8,29.2,11.9,41.6c1.8,7.3-0.9,15.5-3.2,21.8C1695.7,1049.4,1694.4,1052.9,1694.1,1056.5z"/>
						<path fill="#B15252" d="M1724.5,1070.3c16.8,0.8,11.7,4.3,34.8,8.5c23.1,4.2,32.3-2.1,34-5.2c1.5-2.8-9.2-7.1-20.7-12
							l-0.2,0.2c0,0-16.2,5.5-34.9,0.4c-15.3-4.1-30-13.3-40.5-16.2c-1.3,3.4-2.5,6.9-2.9,10.5
							C1693.1,1067,1707.6,1069.5,1724.5,1070.3z"/>
					</g>
					<path fill="#0B0754" d="M1420.9,664.4c0,0,185,8.8,223.2,35c38.2,26.2,89.8,316.6,89.8,316.6s-4,3-12.7,3.6
						c-8.1,0.6-25.6-4.9-25.6-4.9s-85.3-132.4-90.4-165.1c-5.1-32.7-2.4-61.6-16.9-62.9c-14.5-1.3-195.9,14.4-221.3-34.8
						C1341.6,702.8,1420.9,664.4,1420.9,664.4z"/>
					<path fill="#A83F3F" d="M1486.8,257.4c-8.2-5.4-18.4-6.6-25.6-6.7c2-1.8,5.6-2.2,5.6-2.2c-4.4-1-14.6,2.8-14.6,2.8
						c-60.1-27.9-75.9,62.3-76,83.5c-0.1,21.2-1.6,45.5-33.6,62.4c-63.1,33.2-16.3,101.6-16.3,101.6c0.5,0.3,25,49.2,25,49.2
						c-0.4-17.2,84.3-101.9,127.1-126.1c11-14,16.3-39.8,16.7-41.8c-3.1,20.5-7.4,31.8-11,38.1
						C1521.1,388.4,1508.6,271.7,1486.8,257.4z"/>
					<path fill="#FDB3B1" d="M1413.1,401.9c0,0,16.3,0.7,33.6,2.3c11.7,1.1,24.2,2.4,30.8,5.2c16.3,6.8,14.6,35.7-19.6,30.3
						C1423.7,434.4,1410.7,410.4,1413.1,401.9z"/>
					<path fill="#FDB3B1" d="M1476,422.9c0.2,0.1,4.9,24.8-17.5,23.8c-14.7-0.6-46.4-18.4-43.6-31c1.3-6,12.4-21.5,14.7-57l2.7,0.7
						l45,12.1c0,0-2,14.3-2.9,27.8C1473.6,410.7,1473.5,421.5,1476,422.9z"/>
					<path fill="#FCA09E" d="M1477.3,371.6c0,0-2,14.3-2.9,27.8c-25.5-2.4-37.4-26.6-42.1-39.9L1477.3,371.6z"/>
					<path fill="#A83F3F" d="M1427.9,354.2c0,0-12-22-14-40.3c-1.4-13.1,8.3-60.4,55.9-50.3c0,0,13.9,2.3,26.4,12
						c10,7.7,24,24,4.4,64.6l-5.3,13.8L1427.9,354.2z"/>
					<path fill="#FDB3B1" d="M1484.9,384.9c0,0-60.4-3-58-40.6c2.5-37.6-3.7-63.3,35-63c38.7,0.3,45.2,15.2,47.5,27.9
						C1511.7,322,1500.7,384.8,1484.9,384.9z"/>
					<path fill="#A83F3F" d="M1489.5,282.2c0,0-19.5,43-45.3,47.9c-25.8,4.8-36.4-2.7-36.4-2.7s20.5-14.2,26.3-40.9
						C1434.2,286.5,1478.5,260.4,1489.5,282.2z"/>
					<path fill="#A83F3F" d="M1485.2,285.5c0,0,11.7,10.7,14.1,20.5c2.4,9.8,2.4,29.6,8.2,29.3c0,0,14.5-29.2,1.6-47.1
						C1495.4,269.2,1485.2,285.5,1485.2,285.5z"/>
					<path fill="#0B0754" d="M1545.4,654.7c-4.9,5.8-20.2,7.6-36.5,10.3c-12.8,2.1-26.3,4.8-35.9,10.4c-21.8,12.8-93,56-113.9,54.1
						c-8.1-0.8-6.6-16.2-1.7-36.7c7.7-32.4,23.9-77.3,23.9-96.8c0-10.7,3.5-35.9,8.3-64.8c0.4-2.3,0.8-4.7,1.2-7
						c9.4-56.1,22.4-122.2,22.4-122.2s14.5,31.6,42.7,31.6c28.2,0,21.7-24.1,21.7-24.1s25.7,3,31.8,9.6c6.1,6.6,21.5,34.9,24.6,42.6
						c0,0,0.6,9.8-23.7,14.5c0,0,5.9,26.7,6.6,44.5c0.5,13.1-9,54.2-11.7,79.8c-1,9.1-1.1,16.2,0.4,19.4c1.9,4.1,8,8.2,14.9,12.3
						C1534.1,640,1551.2,647.7,1545.4,654.7z"/>
					<path fill="#060632" d="M1520.4,632c15.6,26.6-42.3,34.6-51.9,40.3c-21.8,12.8-88.4,59.2-109.3,57.2
						c-8.1-0.8-6.6-16.2-1.7-36.7c7.7-32.4,23.9-77.3,23.9-96.8c0-10.7,3.5-35.9,8.3-64.8l25.1-24.1c0,0,26.9,69.6,52.6,81
						c13.4,6,27.5,9.9,37.8,12.3c-1,9.1-1.1,16.2,0.4,19.4C1507.4,623.8,1513.5,628,1520.4,632z"/>
					<path fill="#FDB3B1" d="M1405.4,422.7c0,0-21.5-13-42.2,11.7c-20.8,24.7,14.8,201.6,45.5,210.7c34.2,10.1,132.9-1.6,132.9-1.6
						l-1.9-15.4c0,0-105.1-20.2-109.5-25.8C1425.9,596.7,1416.3,425.6,1405.4,422.7z"/>
					<path fill="#0B0754" d="M1413.1,401.9c0,0-44.1,4-56.9,18.5c-12.8,14.5-16.6,53.8-16.6,53.8s38.8,31.4,85.6,19.2L1413.1,401.9z
						"/>
					<g>
						<rect x="1551.9" y="651.7" fill="#9E332E" width="58.3" height="6.9"/>
						<path fill="#9E332E" d="M1597.8,657.7c0.6-2.3,53.6-85.5,53.6-85.5h117.9l-59.1,83.2L1597.8,657.7z"/>
						<path fill="#A83F3F" d="M1602.8,658.6c0.6-2.3,53.7-86.4,53.7-86.4h112.8l-56.3,86.4H1602.8z"/>
						<path fill="#9E332E" d="M1702.2,615.7c-1.2,3.4-4.8,6.1-8.2,6.1c-3.4,0-5.2-2.7-4-6.1c1.2-3.4,4.8-6.1,8.2-6.1
							C1701.5,609.6,1703.3,612.3,1702.2,615.7z"/>
					</g>
					<path fill="#FDB3B1" d="M1531.1,627.1c0,0,34.2-6.6,38.1-5c3.9,1.7,25.4,21,23.2,24.8c-2.2,3.9-11,6.6-21,3.3
						c-9.9-3.3-31.5-5-35.3-9.9C1532.2,635.4,1531.1,627.1,1531.1,627.1z"/>
				</g>
				<path fill="#DDE8FD" d="M1599.3,974.1c-12.5,72.1-81.1,117.8-151.4,117.8h-141.8l11.1-433.5c0,0,135.3-47.2,169.3-2.3
					c29.8,39.3,110.5,195.1,114.7,287.3C1601.7,954.2,1601,964.4,1599.3,974.1z"/>
				<path fill="#BED2FA" d="M1599.3,974.1c-12.5,72.1-81.1,117.8-151.4,117.8h-113.5C1387.5,1056,1459,956.5,1599.3,974.1z"/>
				<path fill="#5076C9" d="M1379.5,1091.7c-1.1,0.1-2.1,0.1-3.2,0.2c-2.2,0.1-4.5,0.2-6.7,0.2c-0.7,0-1.5,0-2.2,0h-141.8l0-0.1
					c-2.7,0-5.4,0.1-8.2,0.1c-14.6,0.2-29.8,0.4-44,0.5c-2.4,0-4.7,0-7,0.1c-0.9,0-1.7,0-2.5,0c-14,0.1-26.3,0.1-35.1,0.1
					c-12.4-0.1-24.1-1-35.1-2.7c-14.2-2.2-27.2-5.9-39.1-11.2c-4.3-1.9-8.4-4-12.4-6.3c-5.4-3.1-10.5-6.6-15.4-10.5
					c-12.6-10-23.5-22.8-32.7-38.4c-6.4-10.9-12.1-23.2-17-37c-6.2-17.4-11.1-37.1-14.9-59.4c-5.4-31.9-8.6-69-9.5-111.9
					c-0.4-17.3-0.4-35.5-0.1-54.7c0.5-30.7,1.9-63.8,4.1-99.6c3.1-50.3,7.9-105.7,14.2-166.7c5.7-55.7,12.4-94.7,22-103.6
					c14.2-13.1,43.8-18.4,64.4-20.5c0,0,0,0,0,0c12.8-1.3,22.1-1.4,22.1-1.4c25.2,0,47.6,18.1,55.6,44.9
					c16.5,54.7,45.8,152.5,76.4,254.8c0.2,0.5,0.3,1,0.5,1.5c1.8,5.9,3.5,11.8,5.3,17.7c0.3,0.9,0.5,1.8,0.8,2.7
					c1.7-0.8,3.5-1.6,5.4-2.4c0.1,0,0.1-0.1,0.2-0.1c7.3-3.2,15.6-6.8,24.6-10.4h0c4.6-1.9,9.5-3.8,14.4-5.7
					c14-5.4,29.1-10.7,44.4-15.2c6.8-2,13.6-3.9,20.4-5.6c8.7-2.2,17.4-4,25.8-5.4c0.3-0.1,0.5-0.1,0.7-0.1c1-0.2,2-0.3,3-0.5
					c36.4-5.3,68-1.6,81.1,21.4c20.9,36.9,78.5,184.3,82.7,276.7C1524.6,1028.5,1454.9,1086,1379.5,1091.7z"/>
				<path fill="#DDE8FD" d="M1152.1,707.8c0,0-72.8-296.5-78-321.4c-2.3-11.1-9.6-15.1-16.8-16.2c12.8-1.3,22.1-1.4,22.1-1.4
					c25.2,0,47.6,18,55.6,44.8c17.6,58.4,50.1,166.1,83,275.9C1216.3,689.5,1152.1,707.8,1152.1,707.8z"/>
				<path fill="#3662C1" d="M1420.2,850.3c-19.5-32.2-3.1-38.2-6.1-110.3c-3-72.1-36.6-66.1-50.5-80.1c-2.5-2.6-4.7-7.8-6.8-14.8
					c-1,0.1-2,0.3-3,0.5c-0.2,0-0.4,0.1-0.7,0.1c-8.4,1.4-17.1,3.2-25.8,5.4c-6.8,1.7-13.6,3.6-20.4,5.6
					c-15.3,4.6-30.4,9.9-44.4,15.2c-5,1.9-9.8,3.8-14.4,5.7c-12,75.6-30.7,414.6-30.7,414.6c0.2,0.2,0.3,0.3,0.5,0.5
					c15.2-0.1,31.7-0.3,47.3-0.5c2.2,0,4.4-0.1,6.6-0.1l0,0.1h107c0.1-0.1,0.3-0.2,0.4-0.3c0.1-0.1,0.2-0.1,0.3-0.2
					c28.7-17.8,22.3-53.6,15.6-76c-2.7-24-13.3-52-22-78.1c2.7-7.9,6.5-12.5,22.6-18.5c18-6.6,22.7-34.9,22.7-34.9
					c4.8,12.7-6.2,30.1-6.5,30.6C1412.6,914,1439.5,882.1,1420.2,850.3z"/>
			</g>
			<g id="girl_2_5_">
				<path fill="#FC9492" d="M1181.2,704.2c0,0-107.9,47-127.5,46.2c-19.6-0.9-140.3-36.8-140.3-36.8l3.1,20.8
					c0,0,93.2,53.6,125.7,56.6c32.1,3,141.7-28.8,152.3-35.5C1205.1,748.8,1212,711,1181.2,704.2z"/>
				<path fill="#0D0D38" d="M1197.4,531.2c0,0,39.8-7.6,59.7,6.9c35.9,26.2,37.9,116.7,51.3,130.2c13.5,13.5,45.9,7.7,48.8,77.4
					c2.9,69.7-12.9,75.5,5.9,106.7c18.8,31.1-8,62.3-8,62.3s11-17.2,6.3-29.6c0,0-4.6,27.4-22,33.8c-17.4,6.4-20,11.1-22.7,20.5
					c0,0-148.3-76-148.5-129.9c-0.2-53.9-29.2-107.3-14.9-130.7c0,0-6.3,10-7.1,21.1c0,0-8.6-16.4,6.3-31.6
					c14.8-15.3-17.4-46.8-12.6-83.4C1143.1,559.8,1160.7,532.3,1197.4,531.2z"/>
				<path fill="#FDB3B1" d="M1168.1,755.6c9.5,6.6,21.4,12,36.3,15.4c55.9,12.9,77.4-34.4,85.4-66.8c-7.6-4.4-14.8-5.3-19-5.8
					c-4-0.5-8.3-0.8-11.8-1c-6.3-4.8-15.6-24.5-17.7-55.1l-2.6,0.7l-44.1,12.1c0,0,2,14,3,27.3c0.8,10.4,0.9,20.3-1.1,22.7
					c-3.4,0.7-5.5,1.2-5.5,1.2s0,0,0,0C1190.4,707.3,1177.6,728.3,1168.1,755.6z"/>
				<path fill="#FC9492" d="M1194.6,655.1c0,0,2,14,3,27.3c25-2.5,36.6-26.3,41.1-39.3L1194.6,655.1z"/>
				<path fill="#FDB3B1" d="M1187.1,668.3c0,0,59.3-3.3,56.7-40.2c-2.6-36.9,3.3-62.1-34.7-61.6c-38,0.5-44.3,15.1-46.4,27.6
					C1160.6,606.7,1171.6,668.2,1187.1,668.3z"/>
				<path fill="#0D0D38" d="M1163,573.5c8.4-11.8,15.4-9.8,19.6-6.8c31.1-20.1,53.8,4.7,53.8,4.7c5.9,26.2,26,40,26,40
					s-10.3,7.4-35.7,2.8c-7.7-1.4-14.9-6.3-21.1-12.5c11.3,16.2,25.9,27.3,25.9,27.3c-30.7-11.6-45.6-52.1-47.1-56.4
					c-3.4,3.5-10,11.1-11.7,18.1c-2.3,9.6-12.1,24.6-17.8,24.4C1154.9,615.2,1150.5,591.1,1163,573.5z"/>
				<path fill="#A83F3F" d="M1306.7,876.1c5.4-27.4,22.8-136.7,5.4-171.9c-6.3-12.6-30.9-13.8-57.9-12.7
					c-8.4,5.4-40.4,25.9-53.5,23.4c-0.1,0-0.4-0.1-0.7-0.2c-6.2-1.5-8.5-5.9-3.4-9.6c0,0-13.4-1.3-30,1.8
					c-9.4,1.8-34.7,14.8-34.7,14.8s12.7,23,31.5,30.9c-3.2,28.6,1.6,41.2,31.2,107.1c25,55.8-3.4,106-3.4,106
					s147.4,118.5,148.2,58.2C1340.1,978.5,1299.8,911.1,1306.7,876.1z"/>
				<path fill="#E75755" d="M1183.9,1094.7c-8-0.9-15.2-5.3-19.7-12c-0.7-1.1-1.5-2.2-2.3-3.4c-16.8-25.4-23.3-103.2-61-186.1
					c-9.2-20.2-42.2-23.8-51.2-46.6c0,0-22.1-73.9,42.4-76.1c64.5-2.2,172.8,205.7,174.5,227.5
					C1268.3,1019.1,1309.3,1108.8,1183.9,1094.7z"/>
				<path fill="#9E332E" d="M927.4,1093h91.9c0,0,3.4-14.7-2.6-24.6c-5.3-8.8-3.3-13.8,0.7-21.1c-4.2,1.7-9.5,3.3-15.5,2.9
					c-4.6-0.3-9.4-2.3-13.7-4.8c-4,4.5-20.9,23.7-26.2,27.5C956,1077.1,929.3,1075.6,927.4,1093z"/>
				<path fill="#9E332E" d="M1297,732.9c0,0,12,108.8-65.6,131.6c-77.5,22.8-99.5-100.1-36.9-108.9
					C1257.1,746.7,1297,732.9,1297,732.9z"/>
				<path fill="#E75755" d="M1047.6,791.8c-5.5,41.5-27.1,172.3-65.2,236.2c-12.3,20.6,30.9,32.1,31.2,32.1
					c5.8-1.5,15.5-10.8,19.9-14.8c30.9-27.9,93.7-106.8,93.7-170.1c0-30.9,0.5-89.8-21.9-104.8
					C1091.4,761.2,1049.8,775.4,1047.6,791.8z"/>
				<path fill="#FA7269" d="M1238.7,1093c0,0-3.4-4.7-9.3-13.7c-7.1-10.7-14.9-31.8-24.4-58.7c-10-28.3-21.8-63.2-36.6-99.5
					c-4.6-11.2-9.4-22.5-14.5-33.8c-9.2-20.2-34.5-17.4-43.5-40.2c0,0-35.1-79.1,29.4-81.2c64.5-2.2,187.2,211.5,194.2,232.2
					C1341.7,1020.6,1379.4,1114.7,1238.7,1093z"/>
				<path fill="#A83F3F" d="M994.8,1093h91.9c0,0,3.4-14.7-2.6-24.6c-5.3-8.8-3.3-13.8,0.7-21.1c-4.2,1.7-9.5,3.3-15.5,2.9
					c-4.6-0.3-9.4-2.3-13.7-4.8c-4,4.5-20.9,23.7-26.2,27.5C1023.5,1077.1,996.7,1075.6,994.8,1093z"/>
				<path fill="#ED6966" d="M1205,1020.5c-10-28.3-21.8-63.2-36.6-99.5c3.9-27.5,12.2-51.5,26.2-61.2
					C1194.6,859.8,1228.5,965,1205,1020.5z"/>
				<path fill="#FA7269" d="M1101.2,788.9c-5.5,41.5-13.3,175.3-51.4,239.1c-12.3,20.6,30.9,32.1,31.2,32.1
					c5.8-1.5,15.5-10.8,19.9-14.8c30.9-27.9,93.7-106.8,93.7-170.1c0-30.9-36.2-87.3-58.7-102.3
					C1122.1,763.7,1103.4,772.4,1101.2,788.9z"/>
				<g>
					<path fill="#9E332E" d="M902.4,660.2l94.1-10c2.7-0.3,5.3,1.3,6.3,3.9l33.7,88.4c1.5,3.9-1.3,8.1-5.4,8.2l-93.3,3.8
						c-2.5,0.1-4.9-1.4-5.8-3.7l-34.4-82.2C895.8,664.8,898.3,660.6,902.4,660.2z"/>
					<path fill="#A83F3F" d="M894.2,661l94.1-10c2.7-0.3,5.3,1.3,6.3,3.9l33.7,88.4c1.5,3.9-1.3,8.1-5.4,8.2l-93.3,3.8
						c-2.5,0.1-4.9-1.4-5.8-3.7l-34.4-82.2C887.7,665.6,890.2,661.4,894.2,661z"/>
					<path fill="#9E332E" d="M946.3,702.3c-1.2-3.2,0.5-5.7,3.6-5.7c3.2,0,6.6,2.6,7.8,5.7c1.1,3.2-0.5,5.7-3.6,5.7
						C951,708,947.5,705.5,946.3,702.3z"/>
					<path fill="#9E332E" d="M897,669.4c-0.6-1.5,0.2-2.8,1.8-2.8c1.6,0,3.3,1.3,3.8,2.8c0.6,1.6-0.2,2.8-1.8,2.8
						S897.6,670.9,897,669.4z"/>
				</g>
				<path fill="#FDB3B1" d="M1289.8,704.2c0,0-130.4,48-150,47c-12.7-0.6-117.9-37.6-117.9-37.6l-9.4,17.9
					c0,0,102.4,65.8,130.6,65.5c55.6-0.6,149.4-34.8,160-41.5C1313.6,748.8,1320.5,711,1289.8,704.2z"/>
				<path fill="#FDB3B1" d="M1021.9,713.6c0,0-9.4-14.5-18.9-15c-9.4-0.4-25.7,6.4-31.2,7.5c-5.6,1.1-21.4,6.2-16.7,13.9
					c4.7,7.7,26.5,9.4,35.9,7.7c9.4-1.7,21.4,3.8,21.4,3.8L1021.9,713.6z"/>
				<path fill="#FDB3B1" d="M1005.6,699.1c0,0-15-6.9-19.2-8.1c-4.3-1.3-3.4,0-2.1,4.1c1.3,4.1,9,7.9,9,9.2
					C993.2,705.5,1005.6,699.1,1005.6,699.1z"/>
				<path fill="#FDB3B1" d="M903.9,705.9c0,0,9.4-14.9,12.5-15.5c9.4-1.9,9.4,10.5,7.4,18.5c-2.1,8.6-9.4,16.7-11.4,16
					C910.4,724.1,901.7,713.8,903.9,705.9z"/>
				<path fill="#FDB3B1" d="M903.5,708.9c0,0-3,16.7,12.9,25.5L903.5,708.9z"/>
				<path fill="#FFFFFF" d="M1176,647.1c0,0,5.6-2.2,21.4-0.9c0,0-0.8,6.2-12.5,6.8C1178.4,653.2,1176,647.1,1176,647.1z"/>
				<path fill="#A83F3F" d="M1222.6,727.9c0,0,11.7,36.9,51.7,45.3c0,0,66.1-20.4,33.2-65.4C1307.5,707.8,1275,683.6,1222.6,727.9z"
					/>
			</g>
			<path fill="#0D0D38" d="M2611.4,1099.9H3.2c-1.7,0-3.2-1.4-3.2-3.2v-0.6c0-1.7,1.4-3.2,3.2-3.2h2608.2c1.7,0,3.2,1.4,3.2,3.2v0.6
				C2614.5,1098.5,2613.1,1099.9,2611.4,1099.9z"/>
		</g>
	</g>
</g>
</svg>
